<?xml version="1.0" standalone="no"?>
<!DOCTYPE svg PUBLIC "-//W3C//DTD SVG 20010904//EN"
 "http://www.w3.org/TR/2001/REC-SVG-20010904/DTD/svg10.dtd">
<svg version="1.0" xmlns="http://www.w3.org/2000/svg"
 width="700.000000pt" height="700.000000pt" viewBox="0 0 700.000000 700.000000"
 preserveAspectRatio="xMidYMid meet">
<metadata>
Created by potrace 1.11, written by Peter Selinger 2001-2013
</metadata>
<g transform="translate(0.000000,700.000000) scale(0.100000,-0.100000)"
fill="#000000" stroke="none">
<path d="M3465 5067 c-133 -37 -215 -97 -269 -198 -32 -58 -56 -149 -56 -212
0 -64 44 -195 78 -230 31 -34 92 -67 122 -67 11 0 20 -1 20 -3 0 -2 -13 -44
-29 -93 -25 -75 -51 -180 -67 -269 -3 -19 -11 -20 -126 -20 -141 0 -186 -16
-257 -87 -69 -68 -112 -223 -91 -324 17 -79 60 -120 137 -130 36 -4 73 -17 97
-33 34 -22 51 -26 125 -28 47 0 105 -4 127 -8 51 -9 104 7 147 44 18 15 52 33
76 40 25 7 57 26 72 42 30 32 47 95 30 112 -6 6 -11 32 -11 57 0 126 -95 234
-252 289 -16 6 -26 16 -24 23 3 7 12 51 21 97 46 239 170 480 307 596 125 107
180 139 313 183 150 50 200 57 420 57 214 -1 275 -8 410 -52 282 -90 482 -301
589 -621 l24 -72 -29 -15 c-15 -8 -39 -26 -53 -40 -14 -14 -35 -25 -47 -25
-41 0 -87 -38 -106 -88 -19 -50 -24 -167 -10 -234 l8 -38 98 0 c94 0 98 1 109
25 16 34 82 79 138 95 38 11 56 11 93 1 59 -16 118 -55 139 -92 15 -25 22 -29
52 -27 28 2 36 8 40 28 10 48 39 87 84 111 49 25 53 36 35 90 -25 74 -101 139
-163 139 -14 0 -29 6 -33 14 -11 20 -98 56 -133 56 -16 0 -40 -5 -54 -11 -18
-8 -29 -9 -38 -2 -7 6 -27 14 -45 17 -29 7 -33 13 -58 89 -15 45 -29 87 -32
93 -2 7 12 14 34 17 120 20 206 203 174 374 -24 132 -103 239 -216 292 -215
102 -384 63 -457 -105 -13 -30 -27 -54 -31 -54 -4 0 -20 6 -35 14 -15 7 -76
26 -137 42 -106 27 -119 28 -350 28 -227 0 -246 -2 -345 -27 -58 -15 -122 -34
-143 -44 -20 -9 -38 -14 -40 -12 -2 2 -13 27 -26 56 -63 139 -187 188 -356
140z m2007 -1044 c34 -30 18 -93 -23 -93 -47 0 -65 67 -27 94 28 20 27 20 50
-1z m180 0 c22 -20 24 -66 3 -83 -22 -19 -64 -4 -71 25 -7 27 18 75 38 75 6 0
20 -7 30 -17z m-324 -118 c17 -37 -3 -75 -38 -75 -35 0 -55 38 -38 75 8 18 19
25 38 25 19 0 30 -7 38 -25z m490 13 c7 -7 12 -24 12 -38 0 -31 -17 -50 -45
-50 -28 0 -45 19 -45 50 0 31 17 50 45 50 12 0 26 -5 33 -12z"/>
<path d="M1405 4406 c-23 -34 -5 -66 35 -66 44 0 64 44 34 74 -23 23 -51 20
-69 -8z"/>
<path d="M3921 4398 c-73 -21 -155 -97 -201 -188 -45 -88 -22 -293 43 -373 34
-43 91 -47 162 -13 74 37 104 78 115 158 11 75 35 134 84 203 31 43 36 57 36
108 0 51 -4 62 -29 88 -27 27 -35 29 -103 28 -40 0 -89 -5 -107 -11z m127
-141 c2 -12 -3 -17 -17 -17 -12 0 -21 6 -21 13 0 31 32 34 38 4z"/>
<path d="M4620 4382 c-26 -27 -30 -37 -30 -89 0 -51 5 -64 36 -108 49 -69 74
-127 81 -188 8 -75 36 -123 90 -157 80 -51 157 -51 194 0 63 85 83 284 38 374
-30 60 -112 146 -165 171 -27 13 -67 21 -126 23 -86 4 -88 4 -118 -26z m160
-122 c0 -11 -6 -20 -13 -20 -19 0 -27 10 -20 26 8 21 33 17 33 -6z"/>
<path d="M1580 4360 c-13 -9 -13 -12 3 -21 26 -15 22 -85 -9 -148 -19 -38 -40
-62 -71 -81 -54 -34 -121 -49 -134 -29 -12 20 -34 -4 -24 -28 5 -12 9 -14 12
-5 3 7 22 12 44 12 22 0 56 7 76 15 20 8 39 13 42 9 17 -16 25 -1180 9 -1255
-2 -12 33 -14 196 -14 l200 0 -2 115 c-1 63 -5 150 -8 193 l-7 77 70 0 69 0
24 -57 c51 -123 148 -319 167 -336 19 -16 29 -17 114 -7 52 6 142 23 202 37
100 24 107 28 107 50 0 15 -34 72 -84 141 -45 64 -109 156 -141 204 l-58 87
66 64 c94 90 139 187 145 307 11 225 -108 374 -328 409 -36 6 -211 11 -393 11
l-328 0 33 41 c31 39 33 46 33 120 0 43 3 79 8 79 4 0 7 5 7 10 0 13 -21 13
-40 0z m528 -557 c58 -42 77 -132 48 -216 -29 -79 -72 -105 -168 -99 l-68 4 0
162 c0 90 3 166 8 170 15 16 152 0 180 -21z"/>
<path d="M1266 4244 c-19 -18 -20 -28 -6 -55 16 -29 67 -26 81 5 23 50 -36 90
-75 50z"/>
<path d="M4277 4179 c-98 -14 -139 -52 -123 -112 12 -48 88 -110 159 -127 53
-14 57 -26 33 -85 -10 -23 -24 -37 -41 -41 -29 -7 -98 -1 -130 12 -39 15 7
-28 50 -47 49 -23 77 -24 116 -3 28 14 34 14 75 -2 54 -20 107 -9 151 32 22
20 24 24 8 19 -38 -14 -122 -17 -143 -6 -18 10 -42 64 -42 97 0 7 21 17 46 23
137 35 213 162 126 213 -31 18 -136 39 -192 37 -19 -1 -61 -5 -93 -10z"/>
<path d="M5940 3765 c-8 -10 -28 -24 -45 -32 l-30 -14 43 5 c52 5 55 7 50 37
-3 21 -4 21 -18 4z"/>
<path d="M3828 3593 c39 -2 105 -2 145 0 39 1 7 3 -73 3 -80 0 -112 -2 -72 -3z"/>
<path d="M4147 3593 c18 -2 50 -2 70 0 21 2 7 4 -32 4 -38 0 -55 -2 -38 -4z"/>
<path d="M4768 3593 c39 -2 105 -2 145 0 39 1 7 3 -73 3 -80 0 -112 -2 -72 -3z"/>
<path d="M5083 3593 c20 -2 54 -2 75 0 20 2 3 4 -38 4 -41 0 -58 -2 -37 -4z"/>
<path d="M5698 3593 c39 -2 105 -2 145 0 39 1 7 3 -73 3 -80 0 -112 -2 -72 -3z"/>
<path d="M6017 3593 c18 -2 50 -2 70 0 21 2 7 4 -32 4 -38 0 -55 -2 -38 -4z"/>
<path d="M2767 3318 c-3 -13 -24 -122 -47 -243 -23 -121 -44 -230 -47 -242 -5
-22 -2 -23 50 -23 60 0 59 -1 72 73 6 35 8 37 45 37 l39 0 6 -55 7 -55 54 0
c30 0 54 3 54 8 0 4 -21 123 -47 265 l-47 257 -67 0 c-61 0 -67 -2 -72 -22z
m89 -257 l7 -71 -28 0 c-23 0 -26 3 -22 23 3 12 9 53 13 92 8 82 19 67 30 -44z"/>
<path d="M3100 3076 l0 -266 98 0 c108 0 150 14 186 63 19 26 21 42 21 195 0
250 -10 264 -192 270 l-113 4 0 -266z m170 174 c12 -7 16 -40 18 -164 3 -147
2 -156 -18 -176 -12 -12 -29 -20 -38 -18 -15 3 -17 24 -20 186 l-2 182 22 0
c13 0 30 -5 38 -10z"/>
<path d="M3520 3075 l0 -265 60 0 60 0 0 265 0 265 -60 0 -60 0 0 -265z"/>
<path d="M3826 3323 c-5 -18 -96 -498 -96 -508 0 -3 25 -5 55 -5 l54 0 6 38
c12 70 14 72 55 72 l38 0 7 -55 6 -55 55 0 c37 0 54 4 53 13 0 6 -21 125 -47
262 l-47 250 -67 3 c-57 2 -67 0 -72 -15z m90 -270 l6 -63 -27 0 c-25 0 -27 2
-22 33 4 17 9 61 13 97 7 61 8 63 15 30 4 -19 11 -63 15 -97z"/>
<path d="M4150 3075 l0 -265 55 0 55 0 1 128 0 127 51 -127 50 -128 39 0 39 0
0 265 0 265 -50 0 -50 0 0 -117 -1 -118 -50 118 -51 117 -44 0 -44 0 0 -265z"/>
<path d="M4530 3295 l0 -45 40 0 40 0 0 -220 0 -220 60 0 60 0 0 219 0 220 38
3 c36 3 37 4 40 46 l3 42 -140 0 -141 0 0 -45z"/>
<path d="M5100 3075 l0 -265 60 0 59 0 3 118 3 117 39 -117 39 -118 58 0 c33
0 59 2 59 4 0 3 -22 68 -50 146 l-49 141 49 120 49 119 -58 0 -58 0 -41 -97
-41 -98 0 98 -1 97 -60 0 -60 0 0 -265z"/>
<path d="M5510 3075 l0 -265 60 0 60 0 0 265 0 265 -60 0 -60 0 0 -265z"/>
<path d="M5740 3074 l0 -266 114 3 c97 4 119 7 143 25 52 39 58 63 58 246 0
153 -2 169 -21 195 -36 49 -77 63 -191 63 l-103 0 0 -266z m171 176 c18 -10
19 -23 19 -175 0 -152 -1 -165 -19 -175 -50 -26 -51 -23 -51 175 0 198 1 201
51 175z"/>
<path d="M6150 3300 l0 -40 60 0 c33 0 60 -4 60 -8 0 -4 -27 -85 -60 -180 -38
-111 -60 -189 -60 -218 l0 -44 120 0 120 0 0 40 0 40 -64 0 -65 0 65 192 c35
106 64 207 64 225 l0 33 -120 0 -120 0 0 -40z"/>
<path d="M2617 2643 c-4 -3 -7 -51 -7 -105 l0 -98 45 0 c33 0 45 4 45 15 0 8
-9 15 -20 15 -16 0 -20 7 -20 30 0 20 5 30 15 30 8 0 15 7 15 15 0 8 -7 15
-15 15 -10 0 -15 10 -15 30 0 23 4 30 20 30 11 0 20 7 20 15 0 11 -11 15 -38
15 -21 0 -42 -3 -45 -7z"/>
<path d="M2723 2638 c32 -87 32 -88 14 -137 -21 -59 -21 -61 -3 -61 7 0 20 14
27 32 l13 32 13 -32 c9 -21 20 -32 33 -32 20 0 20 0 0 50 -18 45 -18 53 -5 91
8 23 15 48 15 55 0 24 -29 15 -36 -11 -3 -14 -10 -25 -14 -25 -4 0 -11 11 -14
25 -4 17 -13 25 -27 25 -13 0 -19 -5 -16 -12z"/>
<path d="M2860 2546 c0 -99 1 -106 20 -106 17 0 20 7 20 45 0 39 3 45 21 45
39 0 59 19 59 54 0 42 -18 57 -75 64 l-45 5 0 -107z m78 41 c3 -22 -1 -27 -17
-27 -15 0 -21 6 -21 23 0 46 33 49 38 4z"/>
<path d="M3010 2545 l0 -105 45 0 c33 0 45 4 45 15 0 9 -9 15 -25 15 -25 0
-25 1 -25 90 0 83 -1 90 -20 90 -19 0 -20 -7 -20 -105z"/>
<path d="M3136 2634 c-22 -22 -22 -156 0 -178 20 -20 68 -20 88 0 25 25 22
148 -4 174 -24 24 -63 26 -84 4z m59 -37 c11 -43 1 -122 -15 -122 -11 0 -16
15 -18 59 -2 32 -1 65 2 72 8 22 25 16 31 -9z"/>
<path d="M3270 2546 c0 -99 1 -106 20 -106 17 0 20 7 20 45 0 25 4 45 10 45 5
0 15 -20 21 -45 9 -37 16 -45 34 -45 23 0 23 0 8 51 -11 37 -12 54 -4 62 15
15 14 62 -3 76 -7 6 -34 14 -60 17 l-46 7 0 -107z m78 41 c3 -22 -1 -27 -17
-27 -17 0 -21 6 -21 31 0 24 4 30 18 27 10 -2 18 -14 20 -31z"/>
<path d="M3427 2643 c-4 -3 -7 -51 -7 -105 l0 -98 45 0 c33 0 45 4 45 15 0 8
-9 15 -20 15 -16 0 -20 7 -20 30 0 20 5 30 15 30 8 0 15 7 15 15 0 8 -7 15
-15 15 -10 0 -15 10 -15 30 0 23 4 30 20 30 11 0 20 7 20 15 0 11 -11 15 -38
15 -21 0 -42 -3 -45 -7z"/>
<path d="M3670 2546 l0 -106 45 0 c33 0 45 4 45 15 0 9 -9 15 -25 15 -21 0
-25 5 -25 30 0 20 5 30 15 30 8 0 15 7 15 15 0 8 -7 15 -15 15 -10 0 -15 10
-15 30 0 26 4 30 26 30 43 0 22 25 -24 28 l-42 3 0 -105z"/>
<path d="M3771 2643 c0 -5 8 -26 18 -48 17 -38 17 -42 -1 -94 -22 -65 -21 -61
-3 -61 8 0 21 14 28 32 l13 32 13 -32 c8 -20 21 -32 32 -32 23 0 23 -2 -1 54
-18 42 -18 49 -5 87 8 23 15 48 15 55 0 25 -26 15 -36 -13 l-11 -28 -13 28
c-12 24 -51 40 -49 20z"/>
<path d="M3918 2644 c-5 -4 -8 -52 -8 -106 0 -90 2 -98 19 -98 16 0 20 8 23
43 3 36 6 42 28 45 14 2 31 9 38 14 13 12 16 66 4 85 -9 15 -93 29 -104 17z
m70 -57 c3 -22 -1 -27 -17 -27 -15 0 -21 6 -21 23 0 46 33 49 38 4z"/>
<path d="M4060 2545 l0 -105 45 0 c33 0 45 4 45 15 0 9 -9 15 -25 15 -21 0
-25 5 -25 29 0 20 6 30 20 34 11 3 20 10 20 16 0 6 -9 11 -20 11 -16 0 -20 7
-20 30 0 25 4 30 25 30 16 0 25 6 25 15 0 11 -12 15 -45 15 l-45 0 0 -105z"/>
<path d="M4177 2643 c-4 -3 -7 -51 -7 -105 0 -98 0 -98 25 -98 23 0 25 4 25
46 0 54 15 50 25 -6 6 -33 11 -40 30 -40 22 0 23 1 11 47 -10 38 -10 53 1 74
21 42 3 75 -44 82 -49 9 -58 9 -66 0z m72 -37 c14 -16 4 -46 -15 -46 -9 0 -14
11 -14 30 0 32 11 38 29 16z"/>
<path d="M4330 2545 c0 -98 1 -105 20 -105 19 0 20 7 20 105 0 98 -1 105 -20
105 -19 0 -20 -7 -20 -105z"/>
<path d="M4410 2613 c0 -21 -3 -68 -7 -105 -5 -59 -4 -68 11 -68 12 0 16 10
16 43 0 69 17 79 25 14 8 -59 30 -79 39 -34 3 12 9 40 14 62 10 39 10 39 11
-22 1 -49 4 -63 16 -63 12 0 15 18 15 106 0 103 0 105 -22 102 -18 -2 -25 -14
-37 -63 l-15 -60 -11 60 c-9 50 -14 61 -33 63 -19 3 -22 -1 -22 -35z"/>
<path d="M4587 2643 c-4 -3 -7 -51 -7 -105 l0 -98 50 0 c38 0 50 4 50 15 0 9
-9 15 -25 15 -21 0 -25 5 -25 30 0 20 5 30 15 30 8 0 15 7 15 15 0 8 -7 15
-15 15 -10 0 -15 10 -15 30 0 23 4 30 20 30 11 0 20 7 20 15 0 11 -11 15 -38
15 -21 0 -42 -3 -45 -7z"/>
<path d="M4700 2545 c0 -98 1 -105 20 -105 17 0 20 7 21 48 l1 47 20 -47 c34
-80 48 -64 48 58 0 95 -2 105 -17 102 -13 -2 -19 -16 -23 -48 l-5 -45 -18 48
c-10 26 -25 47 -33 47 -11 0 -14 -21 -14 -105z"/>
<path d="M4830 2631 c0 -12 7 -21 15 -21 12 0 15 -16 15 -85 0 -78 2 -85 20
-85 18 0 20 7 20 84 0 77 2 84 21 89 39 10 15 32 -39 35 -47 3 -52 1 -52 -17z"/>
<path d="M5087 2643 c-4 -3 -7 -51 -7 -105 l0 -98 45 0 c33 0 45 4 45 15 0 8
-9 15 -20 15 -16 0 -20 7 -20 30 0 20 5 30 15 30 8 0 15 7 15 15 0 8 -7 15
-15 15 -10 0 -15 10 -15 30 0 23 4 30 20 30 11 0 20 7 20 15 0 11 -11 15 -38
15 -21 0 -42 -3 -45 -7z"/>
<path d="M5193 2638 c31 -86 31 -87 14 -135 -21 -58 -21 -63 -3 -63 7 0 20 14
27 32 l13 32 13 -32 c9 -21 20 -32 33 -32 20 0 20 0 -1 51 -19 49 -19 55 -4
97 19 56 19 62 0 62 -8 0 -17 -11 -21 -25 -3 -14 -10 -25 -14 -25 -4 0 -11 11
-14 25 -4 17 -13 25 -27 25 -13 0 -19 -5 -16 -12z"/>
<path d="M5346 2634 c-12 -11 -16 -35 -16 -85 0 -88 10 -109 54 -109 35 0 49
11 60 48 6 19 4 22 -18 22 -19 0 -26 -5 -26 -20 0 -11 -7 -20 -15 -20 -13 0
-15 12 -13 72 2 43 8 73 15 75 6 2 13 -6 15 -19 5 -34 44 -32 40 2 -5 46 -64
67 -96 34z"/>
<path d="M5477 2643 c-4 -3 -7 -51 -7 -105 l0 -98 45 0 c33 0 45 4 45 15 0 8
-9 15 -20 15 -16 0 -20 7 -20 30 0 20 5 30 15 30 8 0 15 7 15 15 0 8 -7 15
-15 15 -10 0 -15 10 -15 30 0 23 4 30 20 30 11 0 20 7 20 15 0 11 -11 15 -38
15 -21 0 -42 -3 -45 -7z"/>
<path d="M5590 2545 l0 -105 45 0 c33 0 45 4 45 15 0 9 -9 15 -25 15 -25 0
-25 1 -25 90 0 83 -1 90 -20 90 -19 0 -20 -7 -20 -105z"/>
<path d="M3537 2473 c-13 -12 -7 -33 9 -33 14 0 15 -2 3 -17 -12 -14 -12 -16
1 -11 20 6 27 68 7 68 -7 0 -17 -3 -20 -7z"/>
<path d="M4950 2460 c0 -11 5 -20 11 -20 6 0 8 -7 5 -16 -4 -10 -1 -14 6 -12
7 3 14 19 16 36 3 27 0 32 -17 32 -14 0 -21 -6 -21 -20z"/>
<path d="M5767 2473 c-14 -13 -6 -33 13 -33 13 0 20 7 20 20 0 19 -20 27 -33
13z"/>
<path d="M5890 2460 c0 -13 7 -20 20 -20 13 0 20 7 20 20 0 13 -7 20 -20 20
-13 0 -20 -7 -20 -20z"/>
<path d="M6020 2460 c0 -13 7 -20 20 -20 13 0 20 7 20 20 0 13 -7 20 -20 20
-13 0 -20 -7 -20 -20z"/>
</g>
</svg>
